<svg width="48" height="44" viewBox="0 0 48 44" fill="none" xmlns="http://www.w3.org/2000/svg">
<path fill-rule="evenodd" clip-rule="evenodd" d="M47.9635 17.2462L47.97 26.3033C47.9062 27.1662 47.824 28.028 47.7234 28.8883C47.5552 30.3268 46.3858 31.4871 44.9173 31.6513C40.3179 32.1653 35.5584 32.1653 30.959 31.6513C29.4905 31.4871 28.3211 30.3268 28.1528 28.8883C27.6034 24.1907 27.6034 19.4452 28.1528 14.7477C28.3211 13.3091 29.4905 12.1488 30.959 11.9847C35.5584 11.4706 40.3179 11.4706 44.9173 11.9847C46.3858 12.1488 47.5552 13.3091 47.7234 14.7477C47.8207 15.5792 47.9007 16.4122 47.9635 17.2462ZM37.9381 18.068C35.8671 18.068 34.1881 19.7469 34.1881 21.818C34.1881 23.889 35.8671 25.568 37.9381 25.568C40.0092 25.568 41.6881 23.889 41.6881 21.818C41.6881 19.7469 40.0092 18.068 37.9381 18.068Z" fill="#299764"/>
<path d="M46.4471 6.91726C46.8358 7.59041 46.1063 8.3442 45.3338 8.25786C40.4576 7.71287 35.4187 7.71287 30.5425 8.25786C27.3691 8.61253 24.8026 11.1114 24.4282 14.312C23.845 19.299 23.845 24.3369 24.4282 29.3239C24.8026 32.5245 27.3691 35.0234 30.5424 35.3781C35.4187 35.923 40.4576 35.923 45.3338 35.3781C46.1114 35.2911 46.847 36.0502 46.4545 36.7271C44.508 40.0842 41.0377 42.4271 37.0052 42.8515L35.3755 43.023C27.0984 43.894 18.7498 43.8366 10.4854 42.8517L9.40554 42.7231C4.95023 42.1921 1.42011 38.7113 0.826677 34.2638C-0.275559 26.0032 -0.275559 17.6327 0.826677 9.37209C1.42011 4.92467 4.95023 1.44379 9.40554 0.912876L10.4854 0.784197C18.7498 -0.200617 27.0984 -0.258055 35.3755 0.612955L37.0052 0.784445C41.0411 1.20915 44.5059 3.55568 46.4471 6.91726Z" fill="#299764"/>
</svg>
